<svg viewBox="0 0 24 17" version="1.1" xmlns="http://www.w3.org/2000/svg" xmlns:xlink="http://www.w3.org/1999/xlink">
    <g id="home-page-2" transform="translate(-1372.000000, -837.000000)" fill="#222523" fill-rule="evenodd">
        <g id="cta" transform="translate(1349.000000, 810.000000)">
            <path d="M23,30.6561949 L23,43.25 C23,43.6642136 23.3357864,44 23.75,44 L46.25,44 C46.6642136,44 47,43.6642136 47,43.25 L47,30.6561949 C47,30.2419814 46.6642136,29.9061949 46.25,29.9061949 C46.1118794,29.9061949 45.9764412,29.9443362 45.8586185,30.0164133 L35.3913815,36.4196662 C35.1511532,36.5666241 34.8488468,36.5666241 34.6086185,36.4196662 L24.1413815,30.0164133 C23.7880399,29.8002593 23.3263725,29.9114718 23.1102184,30.2648134 C23.0381412,30.3826361 23,30.5180743 23,30.6561949 Z M25.4137906,28.3989014 L34.6239322,33.736597 C34.8565251,33.8713952 35.1434749,33.8713952 35.3760678,33.736597 L44.5862094,28.3989014 C44.9445877,28.1912048 45.0667395,27.7323105 44.8590429,27.3739322 C44.7249078,27.1424833 44.4776501,27 44.2101416,27 L25.7898584,27 C25.3756449,27 25.0398584,27.3357864 25.0398584,27.75 C25.0398584,28.0175085 25.1823417,28.2647662 25.4137906,28.3989014 Z" id="Path-8"></path>
        </g>
    </g>
</svg>