<svg viewBox="0 0 163 61" version="1.1" xmlns="http://www.w3.org/2000/svg" xmlns:xlink="http://www.w3.org/1999/xlink">
    <g id="Symbols" stroke="none" stroke-width="1" fill="none" fill-rule="evenodd">
        <g id="nav" transform="translate(0.000000, -2.000000)" fill="#FFFFFF">
            <g id="logo" transform="translate(0.000000, 2.000000)">
                <path d="M21.5506,39.5823 C21.4706,39.4573 21.3426,39.3883 21.1886,39.3883 L8.5036,39.3883 C8.2416,39.3883 8.0666,39.5633 8.0666,39.8253 L8.0666,40.7793 C8.0666,41.0403 8.2416,41.2163 8.5036,41.2163 L18.5056,41.2163 L8.2786,51.4433 C8.1626,51.5593 8.1376,51.6763 8.1376,51.7533 C8.1376,51.8303 8.1626,51.9463 8.2776,52.0623 L8.9516,52.7363 C9.0676,52.8523 9.1836,52.8763 9.2606,52.8763 L9.2616,52.8763 C9.3396,52.8763 9.4556,52.8523 9.5706,52.7363 L19.7976,42.5093 L19.7976,52.5113 C19.7976,52.7723 19.9736,52.9483 20.2356,52.9483 L21.1886,52.9483 C21.4496,52.9483 21.6256,52.7723 21.6256,52.5113 L21.6256,39.8253 C21.6256,39.7043 21.5766,39.6243 21.5506,39.5823 M37.5911,39.3983 L39.0351,39.3983 C39.1611,39.3983 39.2251,39.4613 39.2251,39.5873 L39.2251,52.5073 C39.2251,52.6343 39.1611,52.6983 39.0351,52.6983 L37.5911,52.6983 C37.4641,52.6983 37.4011,52.6343 37.4011,52.5073 L37.4011,46.8653 C37.4011,46.8143 37.3751,46.7893 37.3251,46.7893 L31.9101,46.7893 C31.8591,46.7893 31.8341,46.8143 31.8341,46.8653 L31.8341,52.5073 C31.8341,52.6343 31.7701,52.6983 31.6441,52.6983 L30.2001,52.6983 C30.0731,52.6983 30.0101,52.6343 30.0101,52.5073 L30.0101,39.5873 C30.0101,39.4613 30.0731,39.3983 30.2001,39.3983 L31.6441,39.3983 C31.7701,39.3983 31.8341,39.4613 31.8341,39.5873 L31.8341,45.1363 C31.8341,45.1863 31.8591,45.2113 31.9101,45.2113 L37.3251,45.2113 C37.3751,45.2113 37.4011,45.1863 37.4011,45.1363 L37.4011,39.5873 C37.4011,39.4613 37.4641,39.3983 37.5911,39.3983 M50.051,50.494 C50.583,49.962 50.849,49.259 50.849,48.385 L50.849,43.768 C50.849,42.882 50.583,42.169 50.051,41.631 C49.519,41.093 48.822,40.823 47.961,40.823 C47.099,40.823 46.406,41.093 45.881,41.631 C45.355,42.169 45.092,42.882 45.092,43.768 L45.092,48.385 C45.092,49.259 45.355,49.962 45.881,50.494 C46.406,51.026 47.099,51.292 47.961,51.292 C48.822,51.292 49.519,51.026 50.051,50.494 M45.51,52.299 C44.801,51.919 44.25,51.384 43.857,50.693 C43.464,50.004 43.268,49.209 43.268,48.309 L43.268,43.787 C43.268,42.888 43.464,42.097 43.857,41.412 C44.25,40.728 44.801,40.196 45.51,39.816 C46.219,39.436 47.036,39.246 47.961,39.246 C48.898,39.246 49.721,39.436 50.431,39.816 C51.14,40.196 51.691,40.728 52.084,41.412 C52.476,42.097 52.673,42.888 52.673,43.787 L52.673,48.309 C52.673,49.209 52.476,50.004 52.084,50.693 C51.691,51.384 51.14,51.919 50.431,52.299 C49.721,52.68 48.898,52.869 47.961,52.869 C47.036,52.869 46.219,52.68 45.51,52.299 M58.5378,52.3944 C57.8218,52.0894 57.2708,51.6604 56.8848,51.1024 C56.4978,50.5444 56.3058,49.8924 56.3058,49.1454 L56.3058,48.5944 C56.3058,48.4674 56.3688,48.4044 56.4958,48.4044 L57.8828,48.4044 C58.0088,48.4044 58.0728,48.4674 58.0728,48.5944 L58.0728,49.0494 C58.0728,49.6964 58.3508,50.2284 58.9088,50.6464 C59.4658,51.0644 60.2318,51.2734 61.2068,51.2734 C62.0808,51.2734 62.7398,51.0894 63.1838,50.7224 C63.6268,50.3554 63.8488,49.8734 63.8488,49.2784 C63.8488,48.8854 63.7338,48.5494 63.5068,48.2714 C63.2788,47.9934 62.9458,47.7364 62.5088,47.5014 C62.0718,47.2674 61.4348,46.9854 60.5998,46.6564 C59.6748,46.3014 58.9428,45.9784 58.4048,45.6874 C57.8668,45.3964 57.4198,45.0124 57.0648,44.5384 C56.7108,44.0624 56.5338,43.4634 56.5338,42.7424 C56.5338,41.6534 56.9228,40.7974 57.7018,40.1764 C58.4808,39.5564 59.5358,39.2464 60.8658,39.2464 C61.8028,39.2464 62.6258,39.4044 63.3348,39.7214 C64.0448,40.0384 64.5928,40.4814 64.9788,41.0504 C65.3648,41.6214 65.5588,42.2804 65.5588,43.0274 L65.5588,43.4074 C65.5588,43.5344 65.4948,43.5974 65.3688,43.5974 L63.9428,43.5974 C63.8168,43.5974 63.7528,43.5344 63.7528,43.4074 L63.7528,43.1224 C63.7528,42.4634 63.4908,41.9154 62.9648,41.4784 C62.4388,41.0414 61.7138,40.8234 60.7888,40.8234 C60.0038,40.8234 59.3958,40.9844 58.9658,41.3074 C58.5348,41.6304 58.3198,42.0964 58.3198,42.7044 C58.3198,43.1224 58.4268,43.4634 58.6418,43.7304 C58.8578,43.9964 59.1778,44.2334 59.6018,44.4424 C60.0258,44.6514 60.6758,44.9204 61.5498,45.2494 C62.4488,45.6054 63.1768,45.9314 63.7338,46.2284 C64.2918,46.5264 64.7538,46.9184 65.1208,47.4074 C65.4888,47.8944 65.6718,48.4984 65.6718,49.2214 C65.6718,50.3354 65.2638,51.2194 64.4468,51.8724 C63.6298,52.5244 62.5058,52.8504 61.0748,52.8504 C60.0988,52.8504 59.2528,52.6984 58.5378,52.3944 M76.1819,44.9266 C76.6059,44.5086 76.8179,43.9576 76.8179,43.2746 C76.8179,42.5776 76.6059,42.0176 76.1819,41.5926 C75.7569,41.1686 75.1969,40.9556 74.4999,40.9556 L71.3279,40.9556 C71.2769,40.9556 71.2509,40.9816 71.2509,41.0316 L71.2509,45.4786 C71.2509,45.5296 71.2769,45.5546 71.3279,45.5546 L74.4999,45.5546 C75.1969,45.5546 75.7569,45.3456 76.1819,44.9266 M76.7899,39.8636 C77.3789,40.1866 77.8349,40.6396 78.1579,41.2226 C78.4809,41.8046 78.6419,42.4766 78.6419,43.2366 C78.6419,43.9956 78.4769,44.6606 78.1479,45.2316 C77.8189,45.8006 77.3529,46.2446 76.7519,46.5616 C76.1499,46.8776 75.4559,47.0356 74.6709,47.0356 L71.3279,47.0356 C71.2769,47.0356 71.2509,47.0616 71.2509,47.1126 L71.2509,52.5076 C71.2509,52.6346 71.1879,52.6976 71.0609,52.6976 L69.6169,52.6976 C69.4909,52.6976 69.4269,52.6346 69.4269,52.5076 L69.4269,39.5696 C69.4269,39.4426 69.4909,39.3786 69.6169,39.3786 L74.7469,39.3786 C75.5199,39.3786 76.2009,39.5406 76.7899,39.8636 M82.3127,52.5077 L82.3127,39.5877 C82.3127,39.4617 82.3757,39.3987 82.5027,39.3987 L83.9467,39.3987 C84.0727,39.3987 84.1367,39.4617 84.1367,39.5877 L84.1367,52.5077 C84.1367,52.6347 84.0727,52.6977 83.9467,52.6977 L82.5027,52.6977 C82.3757,52.6977 82.3127,52.6347 82.3127,52.5077 M97.3357,39.5878 L97.3357,40.8048 C97.3357,40.9308 97.2727,40.9938 97.1457,40.9938 L93.4977,40.9938 C93.4467,40.9938 93.4217,41.0198 93.4217,41.0698 L93.4217,52.5078 C93.4217,52.6348 93.3577,52.6978 93.2317,52.6978 L91.7877,52.6978 C91.6607,52.6978 91.5977,52.6348 91.5977,52.5078 L91.5977,41.0698 C91.5977,41.0198 91.5717,40.9938 91.5217,40.9938 L88.0447,40.9938 C87.9177,40.9938 87.8547,40.9308 87.8547,40.8048 L87.8547,39.5878 C87.8547,39.4618 87.9177,39.3988 88.0447,39.3988 L97.1457,39.3988 C97.2727,39.3988 97.3357,39.4618 97.3357,39.5878 M101.8459,48.7938 C101.8649,48.8128 101.8869,48.8218 101.9119,48.8218 L106.2829,48.8218 C106.3079,48.8218 106.3299,48.8128 106.3489,48.7938 C106.3679,48.7738 106.3709,48.7528 106.3589,48.7278 L104.1549,41.6788 C104.1419,41.6528 104.1229,41.6408 104.0969,41.6408 C104.0719,41.6408 104.0529,41.6528 104.0409,41.6788 L101.8369,48.7278 C101.8239,48.7528 101.8269,48.7738 101.8459,48.7938 M107.5359,52.5458 L106.8529,50.3228 C106.8399,50.2848 106.8149,50.2668 106.7769,50.2668 L101.4379,50.2668 C101.3999,50.2668 101.3739,50.2848 101.3619,50.3228 L100.6779,52.5458 C100.6389,52.6478 100.5639,52.6978 100.4499,52.6978 L98.9099,52.6978 C98.7709,52.6978 98.7209,52.6288 98.7589,52.4888 L102.9199,39.5498 C102.9579,39.4488 103.0329,39.3978 103.1479,39.3978 L105.0479,39.3978 C105.1609,39.3978 105.2379,39.4488 105.2759,39.5498 L109.4739,52.4888 L109.4929,52.5648 C109.4929,52.6538 109.4369,52.6978 109.3229,52.6978 L107.7639,52.6978 C107.6509,52.6978 107.5749,52.6478 107.5359,52.5458 M113.1643,52.5077 L113.1643,39.5877 C113.1643,39.4617 113.2273,39.3987 113.3543,39.3987 L114.7983,39.3987 C114.9243,39.3987 114.9883,39.4617 114.9883,39.5877 L114.9883,51.0447 C114.9883,51.0957 115.0133,51.1207 115.0643,51.1207 L121.6193,51.1207 C121.7463,51.1207 121.8093,51.1847 121.8093,51.3117 L121.8093,52.5077 C121.8093,52.6347 121.7463,52.6977 121.6193,52.6977 L113.3543,52.6977 C113.2273,52.6977 113.1643,52.6347 113.1643,52.5077 M125.4797,52.5077 L125.4797,39.5877 C125.4797,39.4617 125.5427,39.3987 125.6697,39.3987 L127.1137,39.3987 C127.2397,39.3987 127.3037,39.4617 127.3037,39.5877 L127.3037,52.5077 C127.3037,52.6347 127.2397,52.6977 127.1137,52.6977 L125.6697,52.6977 C125.5427,52.6977 125.4797,52.6347 125.4797,52.5077 M140.5032,39.5878 L140.5032,40.8048 C140.5032,40.9308 140.4402,40.9938 140.3132,40.9938 L136.6652,40.9938 C136.6142,40.9938 136.5892,41.0198 136.5892,41.0698 L136.5892,52.5078 C136.5892,52.6348 136.5252,52.6978 136.3992,52.6978 L134.9552,52.6978 C134.8282,52.6978 134.7652,52.6348 134.7652,52.5078 L134.7652,41.0698 C134.7652,41.0198 134.7392,40.9938 134.6892,40.9938 L131.2122,40.9938 C131.0852,40.9938 131.0222,40.9308 131.0222,40.8048 L131.0222,39.5878 C131.0222,39.4618 131.0852,39.3988 131.2122,39.3988 L140.3132,39.3988 C140.4402,39.3988 140.5032,39.4618 140.5032,39.5878 M147.7498,47.1501 C147.7498,47.0991 147.7428,47.0681 147.7308,47.0551 L143.7788,39.6261 C143.7658,39.6001 143.7598,39.5691 143.7598,39.5311 C143.7598,39.4421 143.8098,39.3981 143.9118,39.3981 L145.4698,39.3981 C145.5838,39.3981 145.6598,39.4421 145.6978,39.5311 L148.6048,45.0981 C148.6168,45.1241 148.6358,45.1361 148.6618,45.1361 C148.6868,45.1361 148.7058,45.1241 148.7188,45.0981 L151.6258,39.5311 C151.6638,39.4421 151.7398,39.3981 151.8538,39.3981 L153.4308,39.3981 C153.4938,39.3981 153.5418,39.4211 153.5728,39.4651 C153.6048,39.5091 153.6018,39.5631 153.5638,39.6261 L149.5928,47.0551 C149.5798,47.0681 149.5738,47.0991 149.5738,47.1501 L149.5738,52.4891 C149.5738,52.6161 149.5098,52.6791 149.3838,52.6791 L147.9398,52.6791 C147.8128,52.6791 147.7498,52.6161 147.7498,52.4891 L147.7498,47.1501 Z M162.533,43.4402 L162.533,0.3702 C162.533,0.1242 162.409,0.0002 162.163,0.0002 L2.262,0.0002 L0.37,0.0002 C0.123,0.0002 0,0.1242 0,0.3702 L0,60.4422 C0,60.5902 0.059,60.6792 0.148,60.7382 C0.207,60.7782 0.271,60.8122 0.37,60.8122 L162.163,60.8122 C162.409,60.8122 162.533,60.6892 162.533,60.4422 L162.533,43.4402 L159.906,43.4402 L159.906,58.1852 L2.627,58.1852 L2.627,2.6272 L159.906,2.6272 L159.906,43.4402 L162.533,43.4402 Z M20.4745,18.5737 C21.2385,17.8217 21.6205,16.8297 21.6205,15.5977 C21.6205,14.3447 21.2385,13.3357 20.4745,12.5717 C19.7105,11.8077 18.7015,11.4257 17.4485,11.4257 L11.7365,11.4257 C11.6455,11.4257 11.5995,11.4717 11.5995,11.5627 L11.5995,19.5657 C11.5995,19.6567 11.6455,19.7027 11.7365,19.7027 L17.4485,19.7027 C18.7015,19.7027 19.7105,19.3267 20.4745,18.5737 M21.5695,9.4597 C22.6295,10.0407 23.4505,10.8557 24.0315,11.9047 C24.6135,12.9537 24.9035,14.1617 24.9035,15.5297 C24.9035,16.8977 24.6075,18.0947 24.0145,19.1207 C23.4215,20.1467 22.5835,20.9457 21.5005,21.5147 C20.4175,22.0857 19.1695,22.3697 17.7555,22.3697 L11.7365,22.3697 C11.6455,22.3697 11.5995,22.4157 11.5995,22.5067 L11.5995,32.2197 C11.5995,32.4477 11.4855,32.5617 11.2575,32.5617 L8.6585,32.5617 C8.4305,32.5617 8.3165,32.4477 8.3165,32.2197 L8.3165,8.9297 C8.3165,8.7017 8.4305,8.5877 8.6585,8.5877 L17.8925,8.5877 C19.2825,8.5877 20.5085,8.8777 21.5695,9.4597 M31.7053,11.5967 L31.7053,19.2577 C31.7053,19.3487 31.7513,19.3947 31.8423,19.3947 L37.5543,19.3947 C38.7623,19.3947 39.7313,19.0357 40.4603,18.3177 C41.1903,17.5997 41.5553,16.6477 41.5553,15.4617 C41.5553,14.2527 41.1903,13.2847 40.4603,12.5547 C39.7313,11.8247 38.7623,11.4597 37.5543,11.4597 L31.8423,11.4597 C31.7513,11.4597 31.7053,11.5067 31.7053,11.5967 M41.6923,32.3227 L36.9043,22.0967 C36.8813,22.0277 36.8353,21.9937 36.7673,21.9937 L31.8423,21.9937 C31.7513,21.9937 31.7053,22.0397 31.7053,22.1307 L31.7053,32.2197 C31.7053,32.4477 31.5913,32.5617 31.3633,32.5617 L28.7643,32.5617 C28.5363,32.5617 28.4223,32.4477 28.4223,32.2197 L28.4223,8.9637 C28.4223,8.7357 28.5363,8.6217 28.7643,8.6217 L37.9643,8.6217 C39.3323,8.6217 40.5343,8.9067 41.5723,9.4767 C42.6093,10.0467 43.4133,10.8447 43.9833,11.8707 C44.5533,12.8967 44.8383,14.0817 44.8383,15.4267 C44.8383,17.0237 44.4223,18.3747 43.5903,19.4807 C42.7573,20.5867 41.6003,21.3327 40.1183,21.7207 C40.0273,21.7657 40.0043,21.8227 40.0503,21.8917 L45.0093,32.1517 C45.0313,32.1977 45.0443,32.2537 45.0443,32.3227 C45.0443,32.4827 44.9523,32.5617 44.7703,32.5617 L42.0683,32.5617 C41.8853,32.5617 41.7603,32.4827 41.6923,32.3227 M53.5256,25.5335 C53.5596,25.5675 53.5986,25.5845 53.6456,25.5845 L61.5116,25.5845 C61.5566,25.5845 61.5966,25.5675 61.6306,25.5335 C61.6646,25.4995 61.6706,25.4595 61.6476,25.4135 L57.6806,12.7255 C57.6576,12.6805 57.6236,12.6575 57.5786,12.6575 C57.5326,12.6575 57.4986,12.6805 57.4756,12.7255 L53.5086,25.4135 C53.4856,25.4595 53.4916,25.4995 53.5256,25.5335 M63.7686,32.2885 L62.5376,28.2865 C62.5146,28.2185 62.4686,28.1845 62.4006,28.1845 L52.7896,28.1845 C52.7216,28.1845 52.6756,28.2185 52.6536,28.2865 L51.4226,32.2885 C51.3536,32.4715 51.2166,32.5615 51.0116,32.5615 L48.2416,32.5615 C47.9906,32.5615 47.8996,32.4375 47.9676,32.1855 L55.4576,8.8955 C55.5266,8.7125 55.6626,8.6215 55.8686,8.6215 L59.2886,8.6215 C59.4936,8.6215 59.6306,8.7125 59.6986,8.8955 L67.2566,32.1855 L67.2906,32.3225 C67.2906,32.4825 67.1886,32.5615 66.9836,32.5615 L64.1796,32.5615 C63.9736,32.5615 63.8376,32.4715 63.7686,32.2885 M73.6108,31.8951 C72.3458,31.2451 71.3648,30.3221 70.6698,29.1251 C69.9738,27.9271 69.6268,26.5541 69.6268,25.0041 L69.6268,16.1461 C69.6268,14.5951 69.9738,13.2331 70.6698,12.0591 C71.3648,10.8851 72.3458,9.9721 73.6108,9.3221 C74.8768,8.6731 76.3298,8.3471 77.9718,8.3471 C79.6138,8.3471 81.0608,8.6611 82.3148,9.2881 C83.5688,9.9161 84.5438,10.7991 85.2388,11.9391 C85.9348,13.0791 86.2828,14.4011 86.2828,15.9061 L86.2828,15.9401 C86.2828,16.0551 86.2488,16.1461 86.1798,16.2141 C86.1108,16.2821 86.0308,16.3161 85.9398,16.3161 L83.3408,16.4531 C83.1128,16.4531 82.9988,16.3511 82.9988,16.1461 L82.9988,16.0431 C82.9988,14.5841 82.5428,13.4091 81.6308,12.5201 C80.7188,11.6311 79.4988,11.1861 77.9718,11.1861 C76.4438,11.1861 75.2178,11.6311 74.2948,12.5201 C73.3718,13.4091 72.9098,14.5841 72.9098,16.0431 L72.9098,25.1401 C72.9098,26.5991 73.3718,27.7731 74.2948,28.6631 C75.2178,29.5521 76.4438,29.9971 77.9718,29.9971 C79.4988,29.9971 80.7188,29.5521 81.6308,28.6631 C82.5428,27.7731 82.9988,26.5991 82.9988,25.1401 L82.9988,25.0721 C82.9988,24.8671 83.1128,24.7641 83.3408,24.7641 L85.9398,24.9011 C86.1678,24.9011 86.2828,25.0151 86.2828,25.2431 C86.2828,26.7481 85.9348,28.0761 85.2388,29.2271 C84.5438,30.3791 83.5688,31.2741 82.3148,31.9121 C81.0608,32.5511 79.6138,32.8691 77.9718,32.8691 C76.3298,32.8691 74.8768,32.5451 73.6108,31.8951 M106.0224,8.9635 L106.0224,11.1525 C106.0224,11.3805 105.9084,11.4945 105.6804,11.4945 L99.1134,11.4945 C99.0224,11.4945 98.9774,11.5405 98.9774,11.6305 L98.9774,32.2195 C98.9774,32.4485 98.8624,32.5615 98.6354,32.5615 L96.0364,32.5615 C95.8074,32.5615 95.6934,32.4485 95.6934,32.2195 L95.6934,11.6305 C95.6934,11.5405 95.6484,11.4945 95.5574,11.4945 L89.2984,11.4945 C89.0704,11.4945 88.9564,11.3805 88.9564,11.1525 L88.9564,8.9635 C88.9564,8.7355 89.0704,8.6215 89.2984,8.6215 L105.6804,8.6215 C105.9084,8.6215 106.0224,8.7355 106.0224,8.9635 M109.6069,32.2199 L109.6069,8.9639 C109.6069,8.7359 109.7209,8.6219 109.9489,8.6219 L112.5479,8.6219 C112.7759,8.6219 112.8899,8.7359 112.8899,8.9639 L112.8899,32.2199 C112.8899,32.4479 112.7759,32.5619 112.5479,32.5619 L109.9489,32.5619 C109.7209,32.5619 109.6069,32.4479 109.6069,32.2199 M121.1076,31.8951 C119.8426,31.2451 118.8616,30.3221 118.1666,29.1251 C117.4706,27.9271 117.1236,26.5541 117.1236,25.0041 L117.1236,16.1461 C117.1236,14.5951 117.4706,13.2331 118.1666,12.0591 C118.8616,10.8851 119.8426,9.9721 121.1076,9.3221 C122.3736,8.6731 123.8266,8.3471 125.4686,8.3471 C127.1106,8.3471 128.5576,8.6611 129.8116,9.2881 C131.0656,9.9161 132.0406,10.7991 132.7356,11.9391 C133.4316,13.0791 133.7796,14.4011 133.7796,15.9061 L133.7796,15.9401 C133.7796,16.0551 133.7456,16.1461 133.6766,16.2141 C133.6076,16.2821 133.5276,16.3161 133.4366,16.3161 L130.8376,16.4531 C130.6096,16.4531 130.4956,16.3511 130.4956,16.1461 L130.4956,16.0431 C130.4956,14.5841 130.0396,13.4091 129.1276,12.5201 C128.2156,11.6311 126.9956,11.1861 125.4686,11.1861 C123.9406,11.1861 122.7146,11.6311 121.7916,12.5201 C120.8686,13.4091 120.4066,14.5841 120.4066,16.0431 L120.4066,25.1401 C120.4066,26.5991 120.8686,27.7731 121.7916,28.6631 C122.7146,29.5521 123.9406,29.9971 125.4686,29.9971 C126.9956,29.9971 128.2156,29.5521 129.1276,28.6631 C130.0396,27.7731 130.4956,26.5991 130.4956,25.1401 L130.4956,25.0721 C130.4956,24.8671 130.6096,24.7641 130.8376,24.7641 L133.4366,24.9011 C133.6646,24.9011 133.7796,25.0151 133.7796,25.2431 C133.7796,26.7481 133.4316,28.0761 132.7356,29.2271 C132.0406,30.3791 131.0656,31.2741 129.8116,31.9121 C128.5576,32.5511 127.1106,32.8691 125.4686,32.8691 C123.8266,32.8691 122.3736,32.5451 121.1076,31.8951 M153.2527,11.4599 L141.1117,11.4599 C141.0207,11.4599 140.9747,11.5059 140.9747,11.5969 L140.9747,18.9499 C140.9747,19.0409 141.0207,19.0869 141.1117,19.0869 L149.4567,19.0869 C149.6847,19.0869 149.7987,19.2009 149.7987,19.4289 L149.7987,21.5839 C149.7987,21.8119 149.6847,21.9249 149.4567,21.9249 L141.1117,21.9249 C141.0207,21.9249 140.9747,21.9709 140.9747,22.0619 L140.9747,29.5859 C140.9747,29.6779 141.0207,29.7229 141.1117,29.7229 L153.2527,29.7229 C153.4807,29.7229 153.5947,29.8379 153.5947,30.0649 L153.5947,32.2199 C153.5947,32.4479 153.4807,32.5619 153.2527,32.5619 L138.0337,32.5619 C137.8057,32.5619 137.6917,32.4479 137.6917,32.2199 L137.6917,8.9639 C137.6917,8.7359 137.8057,8.6219 138.0337,8.6219 L153.2527,8.6219 C153.4807,8.6219 153.5947,8.7359 153.5947,8.9639 L153.5947,11.1179 C153.5947,11.3459 153.4807,11.4599 153.2527,11.4599" id="Fill-2"></path>
            </g>
        </g>
    </g>
</svg>