<?xml version="1.0" encoding="UTF-8"?>
<svg width="41px" height="47px" viewBox="0 0 41 47" version="1.1" xmlns="http://www.w3.org/2000/svg" xmlns:xlink="http://www.w3.org/1999/xlink">
    <title>icon</title>
    <g id="Design" stroke="none" stroke-width="1" fill="none" fill-rule="evenodd">
        <g id="07-media-detail" transform="translate(-751.000000, -3617.000000)" fill-rule="nonzero">
            <g id="right" transform="translate(720.000000, 258.000000)">
                <g id="pdf-download" transform="translate(0.000000, 3328.000000)">
                    <g id="icon" transform="translate(31.000000, 31.000000)">
                        <path d="M2.9487,0 L27.5832,0 L40.64055,13.00665 L40.64055,43.4907 C40.64055,45.09255 39.3417,46.39005 37.7412,46.39005 L2.9487,46.39005 C1.3482,46.39005 0.04935,45.09255 0.04935,43.4907 L0.04935,2.89935 C0.04935,1.2975 1.34835,0 2.9487,0 Z" id="Path" fill="#928D7C"></path>
                        <path d="M40.5987,13.04715 L30.4929,13.04715 C28.8924,13.04715 27.59355,11.7483 27.59355,10.1478 L27.59355,0.02895 L40.5987,13.04715 Z" id="Path" fill="#4A483F"></path>
                        <path d="M29.7651,21.9816 C30.2508,21.9816 30.48855,21.5583 30.48855,21.14805 C30.48855,20.72325 30.2406,20.313 29.7651,20.313 L26.9991,20.313 C26.45835,20.313 26.15685,20.7609 26.15685,21.2553 L26.15685,28.05285 C26.15685,28.65885 26.50185,28.99515 26.96865,28.99515 C27.4326,28.99515 27.7791,28.65885 27.7791,28.05285 L27.7791,26.18715 L29.45205,26.18715 C29.97105,26.18715 30.23055,25.76235 30.23055,25.34055 C30.23055,24.92745 29.97105,24.51705 29.45205,24.51705 L27.7791,24.51705 L27.7791,21.9816 C27.7791,21.9816 29.7651,21.9816 29.7651,21.9816 Z M20.41605,20.313 L18.39225,20.313 C17.8428,20.313 17.4528,20.68995 17.4528,21.24945 L17.4528,28.0587 C17.4528,28.75305 18.0138,28.97055 18.41535,28.97055 L20.5392,28.97055 C23.0529,28.97055 24.7128,27.3165 24.7128,24.7635 C24.71145,22.06425 23.14875,20.313 20.41605,20.313 Z M20.51325,27.2919 L19.2795,27.2919 L19.2795,21.9918 L20.39145,21.9918 C22.0746,21.9918 22.8066,23.12115 22.8066,24.6795 C22.8066,26.13795 22.0875,27.2919 20.51325,27.2919 Z M13.0995,20.313 L11.0946,20.313 C10.52775,20.313 10.2117,20.68695 10.2117,21.2553 L10.2117,28.05285 C10.2117,28.65885 10.5741,28.99515 11.06115,28.99515 C11.5482,28.99515 11.9106,28.65885 11.9106,28.05285 L11.9106,26.0682 L13.16745,26.0682 C14.7186,26.0682 15.9987,24.9693 15.9987,23.20215 C15.99885,21.4728 14.76375,20.313 13.0995,20.313 Z M13.0662,24.4737 L11.91075,24.4737 L11.91075,21.90915 L13.0662,21.90915 C13.77945,21.90915 14.2332,22.4658 14.2332,23.1921 C14.2317,23.91705 13.77945,24.4737 13.0662,24.4737 Z" id="Shape" fill="#FFFFFF"></path>
                    </g>
                </g>
            </g>
        </g>
    </g>
</svg>