<?xml version="1.0" encoding="UTF-8"?>
<svg width="196px" height="197px" viewBox="0 0 196 197" version="1.1" xmlns="http://www.w3.org/2000/svg" xmlns:xlink="http://www.w3.org/1999/xlink">
    <title>Group 128</title>
    <g id="Design" stroke="none" stroke-width="1" fill="none" fill-rule="evenodd">
        <g id="home-page-1" transform="translate(-972.000000, -449.000000)">
            <g id="play" transform="translate(953.000000, 431.000000)">
                <g id="Group-128" transform="translate(19.000000, 18.000000)">
                    <path d="M89.31083,3.62033 C89.20093,2.59763 88.58493,2.42123 87.63503,2.52343 L86.33583,2.66343 L86.85733,7.50253 L88.15723,7.36253 C89.10643,7.26033 89.67063,6.95723 89.55863,5.91563 L89.31083,3.62033 Z M90.85013,3.45443 L91.09233,5.70353 C91.30303,7.65793 90.17603,8.45033 88.37913,8.64423 L86.99593,8.79333 L87.61823,14.56343 L86.07893,14.73003 L84.65653,1.52943 L87.63363,1.20883 C89.35703,1.02333 90.64223,1.52803 90.85013,3.45443 L90.85013,3.45443 Z" id="Fill-1" fill="#111211"></path>
                    <polygon id="Fill-3" fill="#111211" points="93.98522 0.73934 94.38352 12.66244 97.92552 12.54414 97.97032 13.89724 92.88062 14.06734 92.43682 0.79114"></polygon>
                    <path d="M102.73802,9.59427 L101.86232,2.52917 L100.41122,9.50047 L102.73802,9.59427 Z M102.89972,10.88227 L100.14662,10.77097 L99.48862,13.93917 L98.00532,13.87967 L100.94252,0.69937 L102.97252,0.78197 L104.83872,14.15477 L103.30012,14.09247 L102.89972,10.88227 Z" id="Fill-5" fill="#231F20"></path>
                    <polygon id="Fill-8" fill="#111211" points="111.78741 1.58116 108.36861 9.59826 107.84501 14.51086 106.31551 14.34776 106.83911 9.43446 105.19621 0.87906 106.76351 1.04566 107.83521 7.69496 110.28521 1.42086"></polygon>
                    <path d="M117.40995,8.56268 C118.31645,8.75728 118.91075,8.55218 119.13405,7.50988 L119.53235,5.65068 C119.73885,4.68958 119.24745,4.32838 118.25905,4.11628 L117.04385,3.85588 L116.09465,8.28128 L117.40995,8.56268 Z M119.80955,11.83728 L118.81625,16.47128 L117.30215,16.14648 L118.28915,11.53978 C118.50335,10.54228 118.11345,10.06068 117.13345,9.85068 L115.81885,9.56858 L114.53645,15.55358 L113.02095,15.22878 L115.80485,2.24308 L118.68885,2.86118 C120.36675,3.22098 121.46295,4.03508 121.06675,5.88448 L120.69925,7.59878 C120.45075,8.75938 119.83335,9.33828 118.93245,9.46778 C119.74305,9.93538 120.04475,10.74038 119.80955,11.83728 L119.80955,11.83728 Z" id="Fill-10" fill="#111211"></path>
                    <polygon id="Fill-12" fill="#111211" points="125.11611 16.91725 124.73111 18.21505 119.83461 16.76045 123.61321 4.03515 128.49151 5.48345 128.10581 6.78125 124.70241 5.77045 123.43681 10.03625 126.67991 10.99875 126.29491 12.29655 123.05111 11.33335 121.69451 15.90155"></polygon>
                    <polygon id="Fill-14" fill="#111211" points="130.80907 19.02887 130.33377 20.29657 125.54857 18.50177 130.21407 6.06627 134.98177 7.85477 134.50577 9.12317 131.18007 7.87507 129.61627 12.04357 132.78587 13.23217 132.31057 14.49987 129.14027 13.31127 127.46657 17.77447"></polygon>
                    <polygon id="Fill-16" fill="#111211" points="138.08662 9.233 133.11382 20.0704 136.33312 21.5481 135.76822 22.7787 131.14192 20.6556 136.67892 8.5876"></polygon>
                    <polygon id="Fill-18" fill="#111211" points="149.01453 24.08679 148.35793 25.09829 144.51353 22.60209 145.17083 21.59129"></polygon>
                    <path d="M166.32315,32.07904 C167.04835,31.34894 166.79775,30.75954 166.12015,30.08614 L165.19265,29.16424 L161.75985,32.61874 L162.68805,33.53994 C163.36565,34.21334 163.95645,34.46044 164.69565,33.71704 L166.32315,32.07904 Z M167.42145,33.17104 L165.82685,34.77614 C164.44155,36.17124 163.11505,35.79464 161.83195,34.51994 L160.84565,33.53924 L156.75275,37.65874 L155.65445,36.56674 L165.01555,27.14474 L167.14005,29.25594 C168.37065,30.47884 168.78785,31.79554 167.42145,33.17104 L167.42145,33.17104 Z" id="Fill-20" fill="#111211"></path>
                    <polygon id="Fill-22" fill="#111211" points="171.5014 33.88987 162.4903 41.70537 164.8122 44.38217 163.7888 45.26907 160.4526 41.42257 170.4864 32.71947"></polygon>
                    <path d="M170.13143,46.24312 L175.06503,41.10932 L168.73773,44.37692 L170.13143,46.24312 Z M169.23333,47.18042 L167.58343,44.97262 L164.70993,46.45942 L163.82093,45.27012 L175.90503,39.24172 L177.12163,40.86992 L167.91453,50.74902 L166.99263,49.51492 L169.23333,47.18042 Z" id="Fill-24" fill="#111211"></path>
                    <polygon id="Fill-26" fill="#111211" points="182.07385 48.24981 173.68715 50.64101 169.53685 53.32761 168.70035 52.03541 172.84995 49.34811 178.46885 42.68201 179.32565 44.00641 174.83025 49.02751 181.25135 46.98071"></polygon>
                    <path d="M180.16999,57.00492 C180.58999,57.83162 181.12269,58.16412 182.07399,57.68112 L183.76869,56.82082 C184.64509,56.37632 184.61639,55.76662 184.15859,54.86572 L183.59649,53.75762 L179.56169,55.80652 L180.16999,57.00492 Z M179.13679,60.92982 L174.91229,63.07462 L174.21159,61.69422 L178.41089,59.56202 C179.32089,59.10002 179.44969,58.49382 178.99609,57.60132 L178.38779,56.40222 L172.93129,59.17282 L172.22989,57.79242 L184.06829,51.78082 L185.40389,54.41002 C186.18019,55.93952 186.23829,57.30312 184.55199,58.15922 L182.98959,58.95302 C181.93189,59.48992 181.09259,59.37512 180.42549,58.75702 C180.57249,59.68102 180.13709,60.42162 179.13679,60.92982 L179.13679,60.92982 Z" id="Fill-28" fill="#111211"></path>
                    <polygon id="Fill-30" fill="#111211" points="178.53962 68.26064 177.28872 68.77794 175.33502 64.05854 187.60182 58.98004 189.54922 63.68264 188.29762 64.20064 186.93962 60.91974 182.82782 62.62214 184.12282 65.74904 182.87122 66.26634 181.57762 63.14014 177.17462 64.96294"></polygon>
                    <polygon id="Fill-32" fill="#111211" points="180.48107 74.0117 179.19587 74.4401 177.57817 69.5912 190.18097 65.3849 191.79377 70.2163 190.50857 70.6454 189.38367 67.2742 185.15917 68.6847 186.23157 71.897 184.94637 72.3254 183.87467 69.1131 179.35057 70.623"></polygon>
                    <polygon id="Fill-34" fill="#111211" points="192.6757 73.48803 181.1236 76.45533 182.0049 79.88673 180.6938 80.22343 179.4268 75.29193 192.29 71.98793"></polygon>
                    <polygon id="Fill-36" fill="#111211" points="188.0088 91.33257 186.8097 91.45927 186.3302 86.90227 187.5286 86.77627"></polygon>
                    <path d="M192.71602,109.80599 C193.74082,109.90819 194.03972,109.34119 194.13352,108.39129 L194.26372,107.08999 L189.41832,106.60769 L189.28882,107.90899 C189.19432,108.85889 189.37562,109.47349 190.41862,109.57709 L192.71602,109.80599 Z M192.56272,111.34739 L190.31082,111.12339 C188.35502,110.92879 187.80902,109.66249 187.98892,107.86279 L188.12612,106.47889 L182.34902,105.90349 L182.50302,104.36279 L195.71832,105.67809 L195.42082,108.65869 C195.24932,110.38419 194.49122,111.53919 192.56272,111.34739 L192.56272,111.34739 Z" id="Fill-38" fill="#111211"></path>
                    <polygon id="Fill-40" fill="#111211" points="194.5699 114.96268 182.826 112.90258 182.2135 116.39068 180.88 116.15688 181.7592 111.14278 194.8373 113.43738"></polygon>
                    <path d="M184.11435,121.69136 L191.20675,122.28916 L184.68485,119.43386 L184.11435,121.69136 Z M182.82005,121.58426 L183.49625,118.91306 L180.53245,117.61806 L180.89575,116.17886 L193.18565,121.76626 L192.68725,123.73606 L179.21995,122.80716 L179.59725,121.31406 L182.82005,121.58426 Z" id="Fill-42" fill="#111211"></path>
                    <polygon id="Fill-44" fill="#111211" points="190.05819 132.23539 182.92939 127.21919 178.23239 125.68269 178.71119 124.21969 183.40819 125.75689 192.12039 125.93539 191.62969 127.43339 184.90199 127.09459 190.52859 130.79899"></polygon>
                    <path d="M182.05264,136.28398 C181.67394,137.12958 181.74954,137.75328 182.72254,138.18938 L184.45714,138.96708 C185.35384,139.36888 185.80954,138.96358 186.22254,138.04168 L186.73144,136.90768 L182.60284,135.05758 L182.05264,136.28398 Z M178.35104,137.94648 L174.02854,136.00888 L174.66134,134.59628 L178.95934,136.52268 C179.88964,136.93988 180.44194,136.65918 180.85144,135.74568 L181.40094,134.51928 L175.81844,132.01608 L176.45124,130.60348 L188.56544,136.03338 L187.35934,138.72348 C186.65794,140.28868 185.63384,141.19098 183.90834,140.41748 L182.30954,139.70068 C181.22664,139.21488 180.78914,138.49108 180.85074,137.58388 C180.22424,138.27828 179.37514,138.40568 178.35104,137.94648 L178.35104,137.94648 Z" id="Fill-46" fill="#111211"></path>
                    <polygon id="Fill-48" fill="#111211" points="172.28134 142.08292 171.09134 141.43542 173.53364 136.94562 185.20404 143.29322 182.77014 147.76692 181.58084 147.12012 183.27834 143.99812 179.36674 141.87082 177.74904 144.84512 176.55834 144.19832 178.17674 141.22332 173.98794 138.94552"></polygon>
                    <polygon id="Fill-50" fill="#111211" points="169.0199 147.22288 167.8782 146.49348 170.6327 142.18498 181.8292 149.34318 179.0845 153.63558 177.9428 152.90618 179.8573 149.91158 176.1046 147.51198 174.2804 150.36588 173.1387 149.63578 174.9629 146.78258 170.9442 144.21288"></polygon>
                    <polygon id="Fill-52" fill="#111211" points="177.11708 156.33856 167.54318 149.23706 165.43408 152.08046 164.34698 151.27476 167.37868 147.18746 178.03898 155.09536"></polygon>
                    <polygon id="Fill-54" fill="#111211" points="160.32527 163.96576 159.47127 163.11456 162.70527 159.86936 163.55997 160.72056"></polygon>
                    <path d="M148.94551,179.26391 C149.51111,180.12421 150.13971,180.00031 150.93911,179.47531 L152.03181,178.75641 L149.35711,174.68591 L148.26371,175.40411 C147.46501,175.92841 147.10101,176.45621 147.67711,177.33261 L148.94551,179.26391 Z M147.65051,180.11441 L146.40731,178.22231 C145.32721,176.57871 145.96841,175.35791 147.48041,174.36461 L148.64381,173.60021 L145.45461,168.74571 L146.74961,167.89521 L154.04501,178.99931 L151.54041,180.64501 C150.09071,181.59771 148.71521,181.73491 147.65051,180.11441 L147.65051,180.11441 Z" id="Fill-56" fill="#111211"></path>
                    <polygon id="Fill-58" fill="#111211" points="146.07985 183.95818 140.29645 173.53238 137.19965 175.25088 136.54305 174.06648 140.99365 171.59828 147.43365 183.20708"></polygon>
                    <path d="M134.28177,180.061 L138.27737,185.9459 L136.39507,179.0845 L134.28177,180.061 Z M133.55167,178.9886 L136.05137,177.8336 L135.19457,174.7172 L136.54137,174.0956 L139.92797,187.1548 L138.08557,188.0067 L130.33727,176.96 L131.73447,176.3146 L133.55167,178.9886 Z" id="Fill-60" fill="#111211"></path>
                    <polygon id="Fill-62" fill="#111211" points="129.84111 191.32456 129.24681 182.62636 127.48211 178.00986 128.92061 177.45966 130.68461 182.07686 136.03541 188.95716 134.56261 189.51996 130.58661 184.07956 131.25371 190.78486"></polygon>
                    <path d="M121.66532,187.64893 C120.76932,187.88693 120.33252,188.33843 120.60622,189.36953 L121.09482,191.20633 C121.34752,192.15623 121.94882,192.25493 122.92602,191.99593 L124.12722,191.67673 L122.96382,187.30313 L121.66532,187.64893 Z M118.04142,185.81983 L116.82412,181.24043 L118.32142,180.84213 L119.53102,185.39493 C119.79282,186.38053 120.35912,186.63323 121.32722,186.37633 L122.62642,186.03053 L121.05422,180.11623 L122.55082,179.71863 L125.96192,192.55103 L123.11152,193.30843 C121.45392,193.74943 120.10782,193.52193 119.62202,191.69353 L119.17122,189.99953 C118.86672,188.85293 119.15442,188.05703 119.89782,187.53343 C118.96402,187.48443 118.32912,186.90413 118.04142,185.81983 L118.04142,185.81983 Z" id="Fill-64" fill="#111211"></path>
                    <polygon id="Fill-66" fill="#111211" points="110.99648 183.70863 110.74938 182.37723 115.77608 181.44693 118.19248 194.50963 113.18468 195.43573 112.93828 194.10433 116.43198 193.45753 115.62138 189.07903 112.29288 189.69503 112.04578 188.36293 115.37568 187.74763 114.50838 183.05833"></polygon>
                    <polygon id="Fill-68" fill="#111211" points="104.95282 184.408 104.80092 183.0619 109.88012 182.4914 111.36412 195.6913 106.30382 196.2604 106.15192 194.9143 109.68272 194.5174 109.18502 190.0927 105.82082 190.4707 105.66892 189.1253 109.03382 188.7473 108.50112 184.0097"></polygon>
                    <polygon id="Fill-70" fill="#111211" points="102.9588 196.4529 102.4499 184.5305 98.9093 184.6817 98.8512 183.3279 103.9409 183.1102 104.5072 196.3871"></polygon>
                    <polygon id="Fill-72" fill="#111211" points="86.47562 188.21285 86.59672 187.01305 91.15582 187.47435 91.03402 188.67415"></polygon>
                    <path d="M67.42043,188.99832 C67.10753,189.97902 67.59963,190.38922 68.50963,190.67972 L69.75493,191.07732 L71.23543,186.43982 L69.98943,186.04222 C69.08013,185.75172 68.44103,185.80142 68.12253,186.79892 L67.42043,188.99832 Z M65.94553,188.52792 L66.63293,186.37262 C67.23073,184.49942 68.58243,184.22992 70.30513,184.78012 L71.63023,185.20292 L73.39563,179.67362 L74.87053,180.14472 L70.83293,192.79372 L67.97903,191.88302 C66.32703,191.35522 65.35613,190.37382 65.94553,188.52792 L65.94553,188.52792 Z" id="Fill-74" fill="#111211"></path>
                    <polygon id="Fill-76" fill="#111211" points="61.96848 189.73451 66.43238 178.67661 63.14798 177.35081 63.65478 176.09571 68.37488 178.00111 63.40418 190.31411"></polygon>
                    <path d="M57.56646,178.10254 L55.50146,184.91354 L59.65526,179.13224 L57.56646,178.10254 Z M57.94166,176.86004 L60.41266,178.07804 L62.29776,175.44954 L63.62916,176.10544 L55.60016,186.95824 L53.77806,186.06014 L57.49646,173.08284 L58.87826,173.76394 L57.94166,176.86004 Z" id="Fill-78" fill="#111211"></path>
                    <polygon id="Fill-80" fill="#111211" points="46.02059 181.73036 52.41299 175.79926 54.89519 171.52436 56.22729 172.29716 53.74509 176.57276 51.75569 185.06026 50.39279 184.26856 52.12459 177.75576 47.32819 182.48986"></polygon>
                    <path d="M43.73565,173.07262 C42.98595,172.52592 42.35945,172.47132 41.73015,173.33302 L40.60945,174.87022 C40.02985,175.66542 40.33225,176.19602 41.14915,176.79172 L42.15365,177.52462 L44.82275,173.86572 L43.73565,173.07262 Z M42.87535,169.10222 L45.66975,165.27042 L46.92205,166.18392 L44.14375,169.99332 C43.54245,170.81792 43.70205,171.41712 44.51195,172.00792 L45.59905,172.80102 L49.20825,167.85202 L50.46055,168.76552 L42.62965,179.50282 L40.24545,177.76332 C38.85805,176.75182 38.18675,175.56182 39.30255,174.03232 L40.33645,172.61482 C41.03645,171.65512 41.83655,171.37722 42.71225,171.62572 C42.16135,170.86832 42.21315,170.00942 42.87535,169.10222 L42.87535,169.10222 Z" id="Fill-82" fill="#111211"></path>
                    <polygon id="Fill-84" fill="#111211" points="40.0757 162.2978 40.9549 161.2674 44.8448 164.5868 36.2187 174.6969 32.3428 171.3894 33.222 170.359 35.9261 172.6662 38.8178 169.2768 36.2404 167.0781 37.1203 166.047 39.697 168.2464 42.7938 164.6169"></polygon>
                    <polygon id="Fill-86" fill="#111211" points="35.7287 158.04824 36.6779 157.08294 40.3214 160.66764 31.0065 170.13514 27.3763 166.56444 28.3262 165.59844 30.8581 168.08974 33.9808 164.91664 31.5679 162.54224 32.5171 161.57694 34.9307 163.95134 38.2739 160.55284"></polygon>
                    <polygon id="Fill-88" fill="#111211" points="25.11796 164.09225 34.04576 156.18015 31.69586 153.52785 32.70946 152.62975 36.08696 156.44125 26.14556 165.25145"></polygon>
                    <polygon id="Fill-90" fill="#111211" points="21.12376 146.08335 22.13246 145.42325 24.64126 149.25645 23.63256 149.91725"></polygon>
                    <path d="M8.5155,131.78424 C7.5565,132.15874 7.5474,132.79994 7.8953,133.68964 L8.3713,134.90764 L12.9073,133.13594 L12.432,131.91724 C12.0841,131.02754 11.6438,130.56204 10.6673,130.94354 L8.5155,131.78424 Z M7.952,130.34084 L10.0604,129.51764 C11.8923,128.80224 12.9528,129.68214 13.6115,131.36704 L14.1176,132.66344 L19.5265,130.55084 L20.0907,131.99354 L7.7161,136.82704 L6.6262,134.03614 C5.9948,132.41984 6.146,131.04644 7.952,130.34084 L7.952,130.34084 Z" id="Fill-92" fill="#111211"></path>
                    <polygon id="Fill-94" fill="#111211" points="4.5206 128.01117 15.9215 124.52237 14.8848 121.13577 16.1791 120.73957 17.6687 125.60667 4.9735 129.49167"></polygon>
                    <path d="M10.78266,117.26645 L4.19076,119.94955 L11.29716,119.53725 L10.78266,117.26645 Z M11.98386,116.77505 L12.59286,119.46235 L15.82196,119.27265 L16.15026,120.72025 L2.66406,121.31385 L2.21466,119.33215 L14.63896,114.05275 L14.97916,115.55425 L11.98386,116.77505 Z" id="Fill-96" fill="#111211"></path>
                    <polygon id="Fill-98" fill="#111211" points="0.69559 110.57949 9.32799 111.81289 14.21259 111.04989 14.44989 112.57169 9.56529 113.33469 1.71899 117.13219 1.47539 115.57399 7.62629 112.82019 0.92869 112.07329"></polygon>
                    <path d="M5.99235,103.35017 C5.94545,102.42407 5.59405,101.90327 4.52865,101.95717 L2.63025,102.05377 C1.64885,102.10347 1.42695,102.67187 1.47805,103.68127 L1.54105,104.92237 L6.06025,104.69277 L5.99235,103.35017 Z M8.53335,100.18547 L13.26535,99.94537 L13.34375,101.49167 L8.63975,101.73037 C7.62125,101.78217 7.25655,102.28337 7.30695,103.28367 L7.37555,104.62627 L13.48725,104.31617 L13.56565,105.86247 L0.30485,106.53587 L0.15505,103.59097 C0.06825,101.87737 0.57015,100.60827 2.45945,100.51167 L4.20945,100.42347 C5.39455,100.36327 6.11415,100.80917 6.47255,101.64497 C6.71405,100.74197 7.41265,100.24217 8.53335,100.18547 L8.53335,100.18547 Z" id="Fill-100" fill="#111211"></path>
                    <polygon id="Fill-102" fill="#111211" points="12.04665 93.73539 13.40045 93.76829 13.27655 98.87689 0.00035 98.55559 0.12355 93.46589 1.47665 93.49809 1.39125 97.04919 5.84115 97.15699 5.92305 93.77319 7.27685 93.80609 7.19495 97.18989 11.95985 97.30469"></polygon>
                    <polygon id="Fill-104" fill="#111211" points="12.6014 87.68186 13.9489 87.80996 13.4659 92.89476 0.2506 91.64036 0.7315 86.57376 2.079 86.70186 1.7437 90.23616 6.1733 90.65686 6.4932 87.28846 7.8407 87.41656 7.5208 90.78496 12.264 91.23506"></polygon>
                    <polygon id="Fill-106" fill="#111211" points="1.22157 83.24295 12.99347 85.19315 13.57307 81.69665 14.90937 81.91785 14.07637 86.94315 0.96817 84.77175"></polygon>
                    <polygon id="Fill-108" fill="#111211" points="12.7015 68.79586 13.8488 69.16476 12.4481 73.52576 11.3008 73.15686"></polygon>
                    <path d="M15.90827,49.98028 C15.01437,49.46928 14.51037,49.86478 14.03647,50.69498 L13.38687,51.83038 L17.61487,54.24678 L18.26447,53.11138 C18.73837,52.28188 18.82377,51.64698 17.91377,51.12688 L15.90827,49.98028 Z M16.67687,48.63558 L18.64247,49.75838 C20.34977,50.73488 20.33087,52.11318 19.43347,53.68328 L18.74257,54.89148 L23.78397,57.77338 L23.01537,59.11808 L11.48287,52.52618 L12.96967,49.92428 C13.83067,48.41858 14.99407,47.67308 16.67687,48.63558 L16.67687,48.63558 Z" id="Fill-110" fill="#111211"></path>
                    <polygon id="Fill-112" fill="#111211" points="16.30027 44.53442 26.18987 51.19632 28.16877 48.25842 29.29157 49.01442 26.44747 53.23682 15.43507 45.81822"></polygon>
                    <path d="M28.59815,42.63749 L22.36675,39.20609 L27.15825,44.46589 L28.59815,42.63749 Z M29.73565,43.26119 L28.03185,45.42489 L30.21095,47.81329 L29.29325,48.97879 L20.34725,38.87849 L21.60305,37.28319 L33.52055,43.60979 L32.56785,44.81939 L29.73565,43.26119 Z" id="Fill-114" fill="#111211"></path>
                    <polygon id="Fill-116" fill="#111211" points="27.42166 30.59595 31.90866 38.06985 35.58086 41.37735 34.55046 42.52115 30.87826 39.21365 22.98436 35.52185 24.03926 34.35075 30.05436 37.38525 26.41016 31.71875"></polygon>
                    <path d="M36.37844,30.13864 C37.06724,29.51844 37.24994,28.91714 36.53594,28.12474 L35.26404,26.71214 C34.60604,25.98274 34.02504,26.16894 33.27394,26.84514 L32.35134,27.67674 L35.37954,31.03884 L36.37844,30.13864 Z M40.43704,30.11414 L43.60804,33.63514 L42.45794,34.67114 L39.30514,31.17114 C38.62264,30.41374 38.00384,30.44664 37.25974,31.11724 L36.26084,32.01674 L40.35654,36.56394 L39.20644,37.59994 L30.31924,27.73484 L32.51024,25.76154 C33.78424,24.61284 35.08624,24.20194 36.35254,25.60754 L37.52504,26.90954 C38.31954,27.79084 38.42664,28.63084 38.00384,29.43584 C38.85784,29.05364 39.68664,29.28044 40.43704,30.11414 L40.43704,30.11414 Z" id="Fill-118" fill="#111211"></path>
                    <polygon id="Fill-120" fill="#111211" points="47.66013 28.78715 48.48683 29.86025 44.43733 32.97945 36.33063 22.45635 40.36543 19.34835 41.19213 20.42075 38.37743 22.58935 41.09483 26.11665 43.77723 24.05025 44.60323 25.12335 41.92153 27.18975 44.83073 30.96695"></polygon>
                    <polygon id="Fill-122" fill="#111211" points="52.70713 25.40097 53.45753 26.52797 49.20223 29.35947 41.84523 18.30017 46.08513 15.47987 46.83483 16.60757 43.87733 18.57527 46.34343 22.28177 49.16233 20.40647 49.91203 21.53417 47.09313 23.40947 49.73423 27.37917"></polygon>
                    <polygon id="Fill-124" fill="#111211" points="49.00784 13.7662 54.90044 24.1367 57.98114 22.3867 58.64964 23.5641 54.22284 26.0792 47.66104 14.5313"></polygon>
                    <polygon id="Fill-126" fill="#111211" points="67.45669 13.58784 67.89279 14.71204 63.62139 16.36894 63.18529 15.24474"></polygon>
                </g>
            </g>
        </g>
    </g>
</svg>