<?xml version="1.0" encoding="UTF-8"?>
<svg width="21px" height="18px" viewBox="0 0 21 18" version="1.1" xmlns="http://www.w3.org/2000/svg" xmlns:xlink="http://www.w3.org/1999/xlink">
    <title></title>
    <g id="Design" stroke="none" stroke-width="1" fill="none" fill-rule="evenodd">
        <g id="07-media-detail" transform="translate(-200.000000, -651.000000)" fill="#111211" fill-rule="nonzero">
            <g id="left" transform="translate(20.000000, 162.000000)">
                <g id="item-copy-2" transform="translate(160.000000, 468.000000)">
                    <path d="M26.7734375,38.109375 C28.5859375,38.109375 30.25,37.7578125 31.765625,37.0546875 C33.28125,36.3515625 34.515625,35.4375 35.46875,34.3125 C36.421875,33.1875 37.15625,31.9453125 37.671875,30.5859375 C38.1875,29.2265625 38.4453125,27.84375 38.4453125,26.4375 L38.4453125,26.4375 L38.4453125,25.921875 C39.2578125,25.328125 39.9453125,24.625 40.5078125,23.8125 C39.7578125,24.125 38.9609375,24.328125 38.1171875,24.421875 C39.0234375,23.890625 39.6328125,23.140625 39.9453125,22.171875 C39.1328125,22.640625 38.2578125,22.96875 37.3203125,23.15625 C36.5078125,22.3125 35.5078125,21.890625 34.3203125,21.890625 C33.1953125,21.890625 32.234375,22.2890625 31.4375,23.0859375 C30.640625,23.8828125 30.2421875,24.84375 30.2421875,25.96875 C30.2421875,26.28125 30.2734375,26.59375 30.3359375,26.90625 C28.6484375,26.8125 27.078125,26.390625 25.625,25.640625 C24.171875,24.890625 22.9296875,23.890625 21.8984375,22.640625 C21.5234375,23.265625 21.3359375,23.953125 21.3359375,24.703125 C21.3359375,26.140625 21.9453125,27.28125 23.1640625,28.125 C22.5078125,28.09375 21.8828125,27.921875 21.2890625,27.609375 L21.2890625,27.609375 L21.2890625,27.65625 C21.2890625,28.625 21.6015625,29.484375 22.2265625,30.234375 C22.8515625,30.984375 23.6328125,31.453125 24.5703125,31.640625 C24.2265625,31.765625 23.8671875,31.828125 23.4921875,31.828125 C23.2421875,31.828125 22.9921875,31.796875 22.7421875,31.734375 C22.9921875,32.546875 23.46875,33.21875 24.171875,33.75 C24.875,34.28125 25.6796875,34.5625 26.5859375,34.59375 C25.0859375,35.75 23.3828125,36.328125 21.4765625,36.328125 C21.1328125,36.328125 20.8046875,36.3125 20.4921875,36.28125 C22.3984375,37.5 24.4921875,38.109375 26.7734375,38.109375 Z" id=""></path>
                </g>
            </g>
        </g>
    </g>
</svg>