<?xml version="1.0" encoding="UTF-8"?>
<svg width="21px" height="20px" viewBox="0 0 21 20" version="1.1" xmlns="http://www.w3.org/2000/svg" xmlns:xlink="http://www.w3.org/1999/xlink">
    <title></title>
    <g id="Design" stroke="none" stroke-width="1" fill="none" fill-rule="evenodd">
        <g id="07-media-detail" transform="translate(-120.000000, -650.000000)" fill="#111211" fill-rule="nonzero">
            <g id="left" transform="translate(20.000000, 162.000000)">
                <g id="item-copy" transform="translate(80.000000, 468.000000)">
                    <path d="M22.4140625,24.875 C23.0859375,24.875 23.65625,24.6328125 24.125,24.1484375 C24.59375,23.6640625 24.828125,23.09375 24.828125,22.4375 C24.828125,21.75 24.59375,21.171875 24.125,20.703125 C23.65625,20.234375 23.0859375,20 22.4140625,20 C21.7421875,20 21.171875,20.234375 20.703125,20.703125 C20.234375,21.171875 20,21.7421875 20,22.4140625 C20,23.0859375 20.234375,23.6640625 20.703125,24.1484375 C21.171875,24.6328125 21.7421875,24.875 22.4140625,24.875 Z M30.734375,39.96875 C30.890625,39.96875 31.015625,39.921875 31.109375,39.828125 C31.203125,39.734375 31.25,39.609375 31.25,39.453125 L31.25,39.453125 L31.25,32.609375 C31.25,31.703125 31.421875,31 31.765625,30.5 C32.109375,30 32.703125,29.75 33.546875,29.75 C34.234375,29.75 34.703125,29.9140625 34.953125,30.2421875 C35.203125,30.5703125 35.328125,31.078125 35.328125,31.765625 L35.328125,31.765625 L35.328125,39.453125 C35.328125,39.609375 35.3828125,39.734375 35.4921875,39.828125 C35.6015625,39.921875 35.71875,39.96875 35.84375,39.96875 L35.84375,39.96875 L39.5,39.96875 C39.625,39.96875 39.7421875,39.921875 39.8515625,39.828125 C39.9609375,39.734375 40.015625,39.609375 40.015625,39.453125 L40.015625,39.453125 L40.015625,30.921875 C40.015625,29.296875 39.546875,28.0625 38.609375,27.21875 C37.671875,26.375 36.375,25.953125 34.71875,25.953125 C33.21875,25.953125 32.03125,26.375 31.15625,27.21875 C31.15625,27.0625 31.140625,26.953125 31.109375,26.890625 L31.109375,26.890625 L31.109375,26.65625 C31.078125,26.53125 31.0234375,26.4375 30.9453125,26.375 C30.8671875,26.3125 30.765625,26.28125 30.640625,26.28125 L30.640625,26.28125 L27.171875,26.28125 C27.046875,26.28125 26.9296875,26.3359375 26.8203125,26.4453125 C26.7109375,26.5546875 26.65625,26.671875 26.65625,26.796875 L26.65625,26.796875 L26.65625,39.453125 C26.65625,39.609375 26.7109375,39.734375 26.8203125,39.828125 C26.9296875,39.921875 27.046875,39.96875 27.171875,39.96875 L27.171875,39.96875 L30.734375,39.96875 Z M24.21875,39.96875 C24.34375,39.96875 24.4609375,39.921875 24.5703125,39.828125 C24.6796875,39.734375 24.734375,39.609375 24.734375,39.453125 L24.734375,39.453125 L24.734375,26.796875 C24.734375,26.671875 24.6796875,26.5546875 24.5703125,26.4453125 C24.4609375,26.3359375 24.34375,26.28125 24.21875,26.28125 L24.21875,26.28125 L20.65625,26.28125 C20.5,26.28125 20.375,26.3359375 20.28125,26.4453125 C20.1875,26.5546875 20.140625,26.671875 20.140625,26.796875 L20.140625,26.796875 L20.140625,39.453125 C20.140625,39.609375 20.1875,39.734375 20.28125,39.828125 C20.375,39.921875 20.5,39.96875 20.65625,39.96875 L20.65625,39.96875 L24.21875,39.96875 Z" id=""></path>
                </g>
            </g>
        </g>
    </g>
</svg>