<?xml version="1.0" encoding="UTF-8"?>
<svg width="21px" height="18px" viewBox="0 0 21 18" version="1.1" xmlns="http://www.w3.org/2000/svg" xmlns:xlink="http://www.w3.org/1999/xlink">
    <title></title>
    <g id="Design" stroke="none" stroke-width="1" fill="none" fill-rule="evenodd">
        <g id="07-media-detail" transform="translate(-280.000000, -651.000000)" fill="#111211" fill-rule="nonzero">
            <g id="left" transform="translate(20.000000, 162.000000)">
                <g id="item-copy-3" transform="translate(240.000000, 468.000000)">
                    <path d="M38.4921875,38.015625 C39.0546875,38.015625 39.53125,37.8203125 39.921875,37.4296875 C40.3125,37.0390625 40.5078125,36.5625 40.5078125,36 L40.5078125,36 L40.5078125,24 C40.5078125,23.4375 40.3125,22.9609375 39.921875,22.5703125 C39.53125,22.1796875 39.0546875,21.984375 38.4921875,21.984375 L38.4921875,21.984375 L22.5078125,21.984375 C21.9453125,21.984375 21.46875,22.1796875 21.078125,22.5703125 C20.6875,22.9609375 20.4921875,23.4375 20.4921875,24 L20.4921875,24 L20.4921875,36 C20.4921875,36.5625 20.6875,37.0390625 21.078125,37.4296875 C21.46875,37.8203125 21.9453125,38.015625 22.5078125,38.015625 L22.5078125,38.015625 L38.4921875,38.015625 Z M30.4765625,30.984375 L22.5078125,26.015625 L22.5078125,24 L30.4765625,29.015625 L38.4921875,24 L38.4921875,26.015625 L30.4765625,30.984375 Z" id=""></path>
                </g>
            </g>
        </g>
    </g>
</svg>