<?xml version="1.0" encoding="UTF-8"?>
<svg width="11px" height="20px" viewBox="0 0 11 20" version="1.1" xmlns="http://www.w3.org/2000/svg" xmlns:xlink="http://www.w3.org/1999/xlink">
    <title></title>
    <g id="Design" stroke="none" stroke-width="1" fill="none" fill-rule="evenodd">
        <g id="07-media-detail" transform="translate(-45.000000, -650.000000)" fill="#111211" fill-rule="nonzero">
            <g id="left" transform="translate(20.000000, 162.000000)">
                <g id="item" transform="translate(0.000000, 468.000000)">
                    <path d="M31.796875,39.96875 L31.796875,30.875 L34.890625,30.875 L35.359375,27.3125 L31.796875,27.3125 L31.796875,25.015625 C31.796875,24.453125 31.921875,24.03125 32.171875,23.75 C32.421875,23.46875 32.890625,23.328125 33.578125,23.328125 L33.578125,23.328125 L35.5,23.28125 L35.5,20.140625 C34.78125,20.046875 33.859375,20 32.734375,20 C31.328125,20 30.203125,20.40625 29.359375,21.21875 C28.515625,22.03125 28.09375,23.1875 28.09375,24.6875 L28.09375,24.6875 L28.09375,27.3125 L25,27.3125 L25,30.875 L28.09375,30.875 L28.09375,39.96875 L31.796875,39.96875 Z" id=""></path>
                </g>
            </g>
        </g>
    </g>
</svg>