<svg viewBox="0 0 1478 1356" version="1.1" xmlns="http://www.w3.org/2000/svg" xmlns:xlink="http://www.w3.org/1999/xlink">
    <g id="Artboard" transform="translate(-559.000000, -649.000000)">
        <g id="spiral" transform="translate(559.000000, 649.000000)">
            <path stroke-width="1" fill="none" d="M1477,677.088894 C1466.66664,870.387627 1377.16911,1053.64448 1238.95612,1177.4426 C1100.74313,1301.24072 915.774026,1364.11567 738.551249,1353.93104 C561.328472,1343.74641 394.074753,1260.74587 281.658238,1133.93519 C169.244923,1007.12205 112.984236,838.184708 123.17729,677.088894 C133.370345,515.99308 209.735299,364.759472 325.172562,263.752473 C440.609332,162.744981 593.549453,113.110793 738.551249,123.308959 C883.553046,133.507124 1018.79501,203.222111 1108.41561,307.262347 C1198.03868,411.301599 1241.05578,548.210767 1230.85042,677.088894 C1220.64505,805.967022 1157.56676,925.18969 1064.90375,1003.40803 C972.240741,1081.62391 851.332065,1118.01832 738.551249,1107.80662 C625.770433,1097.59492 522.542682,1041.16598 455.71307,959.898155 C388.883458,878.630334 359.109205,773.749336 369.326874,677.088894 C379.544543,580.428453 429.338142,493.216727 499.227394,437.789509 C569.114183,382.36229 657.991414,359.209366 738.551249,369.433375 C819.111085,379.657383 890.324621,422.802993 934.363243,481.296922 C978.399404,539.793312 994.93081,612.646139 984.700833,677.088894 C974.470856,741.53165 937.96195,796.732434 890.84892,829.370993 C843.735889,862.007091 786.890104,871.918521 738.551249,861.682206 C690.212394,851.445892 651.010611,821.583617 629.767902,785.861119 C608.522732,750.138621 605.231712,709.313964 615.476457,677.088894 C625.721203,644.863825 648.942955,621.671521 673.279764,611.824083 C697.619035,601.979106 722.433375,605.30917 738.551249,615.55779 C754.669124,625.806411 761.856692,642.382891 760.308411,655.333957 C758.76013,668.285024 748.808302,677.081511 738.551249,677.088894" id="Path" stroke="#FFFFFF" stroke-linecap="round"></path>
            <rect id="Rectangle" x="739" y="0" width="122" height="122" fill="none"></rect>
            <rect id="Rectangle-Copy" x="0" y="678" width="122" height="122" fill="none"></rect>
        </g>
    </g>
</svg>