<svg viewBox="0 0 1440 850" version="1.1" xmlns="http://www.w3.org/2000/svg" xmlns:xlink="http://www.w3.org/1999/xlink">
    <g id="Design" stroke="none" stroke-width="1" fill="none" fill-rule="evenodd">
        <g id="03-services" transform="translate(0.000000, -2839.000000)">
            <g id="mask" transform="translate(0.000000, 2839.000000)">
                <rect id="Rectangle" x="0" y="0" width="1440" height="850"></rect>
                <path class="morph morphTo" d="M773,76.5 C774.242641,76.5 775.367641,77.0036797 776.181981,77.8180195 C776.99632,78.6323593 777.5,79.7573593 777.5,81 L777.5,81 L777.5,741 C777.5,742.242641 776.99632,743.367641 776.181981,744.181981 C775.367641,744.99632 774.242641,745.5 773,745.5 L773,745.5 L550,745.5 C548.757359,745.5 547.632359,744.99632 546.818019,744.181981 C546.00368,743.367641 545.5,742.242641 545.5,741 L545.5,741 L545.5,81 C545.5,79.7573593 546.00368,78.6323593 546.818019,77.8180195 C547.632359,77.0036797 548.757359,76.5 550,76.5 L550,76.5 Z M1181,158.5 C1182.24264,158.5 1183.36764,159.00368 1184.18198,159.818019 C1184.99632,160.632359 1185.5,161.757359 1185.5,163 L1185.5,163 L1185.5,661 C1185.5,662.242641 1184.99632,663.367641 1184.18198,664.181981 C1183.36764,664.99632 1182.24264,665.5 1181,665.5 L1181,665.5 L900,665.5 C898.757359,665.5 897.632359,664.99632 896.818019,664.181981 C896.00368,663.367641 895.5,662.242641 895.5,661 L895.5,661 L895.5,163 C895.5,161.757359 896.00368,160.632359 896.818019,159.818019 C897.632359,159.00368 898.757359,158.5 900,158.5 L900,158.5 Z M481,181.5 C482.242641,181.5 483.367641,182.00368 484.181981,182.818019 C484.99632,183.632359 485.5,184.757359 485.5,186 L485.5,186 L485.5,638 C485.5,639.242641 484.99632,640.367641 484.181981,641.181981 C483.367641,641.99632 482.242641,642.5 481,642.5 L481,642.5 L258,642.5 C256.757359,642.5 255.632359,641.99632 254.818019,641.181981 C254.00368,640.367641 253.5,639.242641 253.5,638 L253.5,638 L253.5,186 C253.5,184.757359 254.00368,183.632359 254.818019,182.818019 C255.632359,182.00368 256.757359,181.5 258,181.5 L258,181.5 Z" id="Rectangle-3" stroke="#928D7C" opacity="0.4"></path>
                <path class="morphFrom" d="M773,389.5 C774.242641,389.5 775.367641,390.00368 776.181981,390.818019 C776.99632,391.632359 777.5,392.757359 777.5,394 L777.5,394 L777.5,699 C777.5,700.242641 776.99632,701.367641 776.181981,702.181981 C775.367641,702.99632 774.242641,703.5 773,703.5 L773,703.5 L550,703.5 C548.757359,703.5 547.632359,702.99632 546.818019,702.181981 C546.00368,701.367641 545.5,700.242641 545.5,699 L545.5,699 L545.5,394 C545.5,392.757359 546.00368,391.632359 546.818019,390.818019 C547.632359,390.00368 548.757359,389.5 550,389.5 L550,389.5 Z M481,302.5 C482.242641,302.5 483.367641,303.00368 484.181981,303.818019 C484.99632,304.632359 485.5,305.757359 485.5,307 L485.5,307 L485.5,542 C485.5,543.242641 484.99632,544.367641 484.181981,545.181981 C483.367641,545.99632 482.242641,546.5 481,546.5 L481,546.5 L258,546.5 C256.757359,546.5 255.632359,545.99632 254.818019,545.181981 C254.00368,544.367641 253.5,543.242641 253.5,542 L253.5,542 L253.5,307 C253.5,305.757359 254.00368,304.632359 254.818019,303.818019 C255.632359,303.00368 256.757359,302.5 258,302.5 L258,302.5 Z M1181,226.5 C1182.24264,226.5 1183.36764,227.00368 1184.18198,227.818019 C1184.99632,228.632359 1185.5,229.757359 1185.5,231 L1185.5,231 L1185.5,521 C1185.5,522.242641 1184.99632,523.367641 1184.18198,524.181981 C1183.36764,524.99632 1182.24264,525.5 1181,525.5 L1181,525.5 L900,525.5 C898.757359,525.5 897.632359,524.99632 896.818019,524.181981 C896.00368,523.367641 895.5,522.242641 895.5,521 L895.5,521 L895.5,231 C895.5,229.757359 896.00368,228.632359 896.818019,227.818019 C897.632359,227.00368 898.757359,226.5 900,226.5 L900,226.5 Z" id="Rectangle-3-Copy" stroke="#928D7C" opacity="0.4"></path>
            </g>
        </g>
    </g>
</svg>