<?xml version="1.0" encoding="UTF-8"?>
<svg viewBox="0 0 875 858" version="1.1" xmlns="http://www.w3.org/2000/svg" xmlns:xlink="http://www.w3.org/1999/xlink">
    <g id="Design" stroke="none" stroke-width="1" fill="none" fill-rule="evenodd" opacity="0.5">
        <g id="home-page-4" transform="translate(-428.000000, -18.000000)">
            <g id="default" transform="translate(8.000000, 18.000000)">
                <g id="svg-masks" transform="translate(420.000000, 0.000000)">
                    <path d="M170,204.5 C171.242641,204.5 172.367641,205.00368 173.181981,205.818019 C173.99632,206.632359 174.5,207.757359 174.5,209 L174.5,209 L174.5,325 C174.5,326.242641 173.99632,327.367641 173.181981,328.181981 C172.367641,328.99632 171.242641,329.5 170,329.5 L170,329.5 L5,329.5 C3.75735931,329.5 2.63235931,328.99632 1.81801948,328.181981 C1.00367966,327.367641 0.5,326.242641 0.5,325 L0.5,325 L0.5,209 C0.5,207.757359 1.00367966,206.632359 1.81801948,205.818019 C2.63235931,205.00368 3.75735931,204.5 5,204.5 L5,204.5 Z M462,204.5 C463.242641,204.5 464.367641,205.00368 465.181981,205.818019 C465.99632,206.632359 466.5,207.757359 466.5,209 L466.5,209 L466.5,325 C466.5,326.242641 465.99632,327.367641 465.181981,328.181981 C464.367641,328.99632 463.242641,329.5 462,329.5 L462,329.5 L355,329.5 C353.757359,329.5 352.632359,328.99632 351.818019,328.181981 C351.00368,327.367641 350.5,326.242641 350.5,325 L350.5,325 L350.5,209 C350.5,207.757359 351.00368,206.632359 351.818019,205.818019 C352.632359,205.00368 353.757359,204.5 355,204.5 L355,204.5 Z M870,204.5 C871.242641,204.5 872.367641,205.00368 873.181981,205.818019 C873.99632,206.632359 874.5,207.757359 874.5,209 L874.5,209 L874.5,325 C874.5,326.242641 873.99632,327.367641 873.181981,328.181981 C872.367641,328.99632 871.242641,329.5 870,329.5 L870,329.5 L588,329.5 C586.757359,329.5 585.632359,328.99632 584.818019,328.181981 C584.00368,327.367641 583.5,326.242641 583.5,325 L583.5,325 L583.5,209 C583.5,207.757359 584.00368,206.632359 584.818019,205.818019 C585.632359,205.00368 586.757359,204.5 588,204.5 L588,204.5 Z" id="mask" stroke="#928D7C"></path>
                    <path d="M170,0 C172.761424,-5.07265313e-16 175,2.23857625 175,5 L175,853 C175,855.761424 172.761424,858 170,858 L5,858 C2.23857625,858 3.38176876e-16,855.761424 0,853 L0,5 C-3.38176876e-16,2.23857625 2.23857625,5.07265313e-16 5,0 L170,0 Z M870,330 C872.761424,330 875,332.238576 875,335 L875,853 C875,855.761424 872.761424,858 870,858 L588,858 C585.238576,858 583,855.761424 583,853 L583,335 C583,332.238576 585.238576,330 588,330 L870,330 Z M462,204 C464.761424,204 467,206.238576 467,209 L467,649 C467,651.761424 464.761424,654 462,654 L355,654 C352.238576,654 350,651.761424 350,649 L350,209 C350,206.238576 352.238576,204 355,204 L462,204 Z" id="mask-1"></path>
                    <path d="M462,330 C464.761424,330 467,332.238576 467,335 L467,853 C467,855.761424 464.761424,858 462,858 L355,858 C352.238576,858 350,855.761424 350,853 L350,335 C350,332.238576 352.238576,330 355,330 L462,330 Z M870,0 C872.761424,-5.07265313e-16 875,2.23857625 875,5 L875,721 C875,723.761424 872.761424,726 870,726 L588,726 C585.238576,726 583,723.761424 583,721 L583,5 C583,2.23857625 585.238576,5.07265313e-16 588,0 L870,0 Z M170,102 C172.761424,102 175,104.238576 175,107 L175,613 C175,615.761424 172.761424,618 170,618 L5,618 C2.23857625,618 3.38176876e-16,615.761424 0,613 L0,107 C-3.38176876e-16,104.238576 2.23857625,102 5,102 L170,102 Z" id="mask-2"></path>
                </g>
            </g>
        </g>
    </g>
</svg>