<svg viewBox="0 0 1065 860" version="1.1" xmlns="http://www.w3.org/2000/svg" preserveAspectRatio="xMidYMid slice">
    <g id="home-page-1" transform="translate(-354.000000, -21.000000)">
        <g id="Group" transform="translate(354.000000, 21.000000)">
            <path d="M193,162 C195.761424,162 198,164.238576 198,167 L198,277 C198,279.761424 195.761424,282 193,282 L5,282 C2.23857625,282 3.38176876e-16,279.761424 0,277 L0,167 C-3.38176876e-16,164.238576 2.23857625,162 5,162 L193,162 Z M1060,162 C1062.76142,162 1065,164.238576 1065,167 L1065,277 C1065,279.761424 1062.76142,282 1060,282 L735,282 C732.238576,282 730,279.761424 730,277 L730,167 C730,164.238576 732.238576,162 735,162 L1060,162 Z M646,162 C648.761424,162 651,164.238576 651,167 L651,277 C651,279.761424 648.761424,282 646,282 L538,282 C535.238576,282 533,279.761424 533,277 L533,167 C533,164.238576 535.238576,162 538,162 L646,162 Z" id="Rectangle-2-Copy" fill="#928D7C"></path>
            
            <path d="M193,0 C195.761424,-5.07265313e-16 198,2.23857625 198,5 L198,855 C198,857.761424 195.761424,860 193,860 L5,860 C2.23857625,860 3.38176876e-16,857.761424 0,855 L0,5 C-3.38176876e-16,2.23857625 2.23857625,5.07265313e-16 5,0 L193,0 Z M1060,0 C1062.76142,-5.07265313e-16 1065,2.23857625 1065,5 L1065,855 C1065,857.761424 1062.76142,860 1060,860 L735,860 C732.238576,860 730,857.761424 730,855 L730,5 C730,2.23857625 732.238576,5.07265313e-16 735,0 L1060,0 Z M646,200 C648.761424,200 651,202.238576 651,205 L651,652 C651,654.761424 648.761424,657 646,657 L538,657 C535.238576,657 533,654.761424 533,652 L533,205 C533,202.238576 535.238576,200 538,200 L646,200 Z" id="Rectangle-2" fill="none"></path>
        </g>
    </g>
</svg>