<svg viewBox="0 0 1400 900" version="1.1" xmlns="http://www.w3.org/2000/svg">
    <path d="M527,21 C529.761424,21 532,23.2385763 532,26 L532,876 C532,878.761424 529.761424,881 527,881 L339,881 C336.238576,881 334,878.761424 334,876 L334,26 C334,23.2385763 336.238576,21 339,21 L527,21 Z M1394,21 C1396.76142,21 1399,23.2385763 1399,26 L1399,876 C1399,878.761424 1396.76142,881 1394,881 L1069,881 C1066.23858,881 1064,878.761424 1064,876 L1064,26 C1064,23.2385763 1066.23858,21 1069,21 L1394,21 Z M980,221 C982.761424,221 985,223.238576 985,226 L985,673 C985,675.761424 982.761424,678 980,678 L872,678 C869.238576,678 867,675.761424 867,673 L867,226 C867,223.238576 869.238576,221 872,221 L980,221 Z" id="Rectangle-2" fill="none"></path>
    <rect id="Rectangle" x="0" y="0" width="1400" height="900" fill="none"></rect>
    <path d="M527,183 C529.761424,183 532,185.238576 532,188 L532,298 C532,300.761424 529.761424,303 527,303 L339,303 C336.238576,303 334,300.761424 334,298 L334,188 C334,185.238576 336.238576,183 339,183 L527,183 Z M1394,183 C1396.76142,183 1399,185.238576 1399,188 L1399,298 C1399,300.761424 1396.76142,303 1394,303 L1069,303 C1066.23858,303 1064,300.761424 1064,298 L1064,188 C1064,185.238576 1066.23858,183 1069,183 L1394,183 Z M980,183 C982.761424,183 985,185.238576 985,188 L985,298 C985,300.761424 982.761424,303 980,303 L872,303 C869.238576,303 867,300.761424 867,298 L867,188 C867,185.238576 869.238576,183 872,183 L980,183 Z" id="Rectangle-2-Copy" fill="#928D7C"></path>
</svg>