<svg viewBox="0 0 875 861" version="1.1" xmlns="http://www.w3.org/2000/svg" xmlns:xlink="http://www.w3.org/1999/xlink">
    <g id="Design" stroke="none" stroke-width="1" fill="none" fill-rule="evenodd">
        <g id="home-page-4" transform="translate(-428.000000, -19.000000)">
            <g id="default" transform="translate(8.000000, 19.000000)">
                <g id="svg-masks" transform="translate(420.000000, 0.000000)">
                    <path d="M170,203.5 C171.242641,203.5 172.367641,204.00368 173.181981,204.818019 C173.99632,205.632359 174.5,206.757359 174.5,208 L174.5,208 L174.5,324 C174.5,325.242641 173.99632,326.367641 173.181981,327.181981 C172.367641,327.99632 171.242641,328.5 170,328.5 L170,328.5 L5,328.5 C3.75735931,328.5 2.63235931,327.99632 1.81801948,327.181981 C1.00367966,326.367641 0.5,325.242641 0.5,324 L0.5,324 L0.5,208 C0.5,206.757359 1.00367966,205.632359 1.81801948,204.818019 C2.63235931,204.00368 3.75735931,203.5 5,203.5 L5,203.5 Z M462,203.5 C463.242641,203.5 464.367641,204.00368 465.181981,204.818019 C465.99632,205.632359 466.5,206.757359 466.5,208 L466.5,208 L466.5,324 C466.5,325.242641 465.99632,326.367641 465.181981,327.181981 C464.367641,327.99632 463.242641,328.5 462,328.5 L462,328.5 L355,328.5 C353.757359,328.5 352.632359,327.99632 351.818019,327.181981 C351.00368,326.367641 350.5,325.242641 350.5,324 L350.5,324 L350.5,208 C350.5,206.757359 351.00368,205.632359 351.818019,204.818019 C352.632359,204.00368 353.757359,203.5 355,203.5 L355,203.5 Z M870,203.5 C871.242641,203.5 872.367641,204.00368 873.181981,204.818019 C873.99632,205.632359 874.5,206.757359 874.5,208 L874.5,208 L874.5,324 C874.5,325.242641 873.99632,326.367641 873.181981,327.181981 C872.367641,327.99632 871.242641,328.5 870,328.5 L870,328.5 L588,328.5 C586.757359,328.5 585.632359,327.99632 584.818019,327.181981 C584.00368,326.367641 583.5,325.242641 583.5,324 L583.5,324 L583.5,208 C583.5,206.757359 584.00368,205.632359 584.818019,204.818019 C585.632359,204.00368 586.757359,203.5 588,203.5 L588,203.5 Z" id="Rectangle-3" stroke="#928D7C" opacity="0.5"></path>
                    <path d="M170,0 C172.761424,-5.07265313e-16 175,2.23857625 175,5 L175,856 C175,858.761424 172.761424,861 170,861 L5,861 C2.23857625,861 3.38176876e-16,858.761424 0,856 L0,5 C-3.38176876e-16,2.23857625 2.23857625,5.07265313e-16 5,0 L170,0 Z M870,404 C872.761424,404 875,406.238576 875,409 L875,856 C875,858.761424 872.761424,861 870,861 L588,861 C585.238576,861 583,858.761424 583,856 L583,409 C583,406.238576 585.238576,404 588,404 L870,404 Z M462,203 C464.761424,203 467,205.238576 467,208 L467,655 C467,657.761424 464.761424,660 462,660 L355,660 C352.238576,660 350,657.761424 350,655 L350,208 C350,205.238576 352.238576,203 355,203 L462,203 Z" id="mask-1"></path>
                    <path d="M170,233 C172.761424,233 175,235.238576 175,238 L175,780 C175,782.761424 172.761424,785 170,785 L5,785 C2.23857625,785 3.38176876e-16,782.761424 0,780 L0,238 C-3.38176876e-16,235.238576 2.23857625,233 5,233 L170,233 Z M870,137 C872.761424,137 875,139.238576 875,142 L875,697 C875,699.761424 872.761424,702 870,702 L588,702 C585.238576,702 583,699.761424 583,697 L583,142 C583,139.238576 585.238576,137 588,137 L870,137 Z M462,71 C464.761424,71 467,73.2385763 467,76 L467,576 C467,578.761424 464.761424,581 462,581 L355,581 C352.238576,581 350,578.761424 350,576 L350,76 C350,73.2385763 352.238576,71 355,71 L462,71 Z" id="mask2"></path>
                </g>
            </g>
        </g>
    </g>
</svg>