<svg width="1399px" height="963px" viewBox="0 0 1399 963" version="1.1" xmlns="http://www.w3.org/2000/svg" xmlns:xlink="http://www.w3.org/1999/xlink">
    <g id="Design" stroke="none" stroke-width="1" fill="none" fill-rule="evenodd">
        <g id="04-about" transform="translate(-20.000000, -538.000000)">
            <g id="hero" transform="translate(20.000000, 162.000000)">
                <g id="img" transform="translate(0.000000, 376.000000)">
                    <path fill="#979797" d="M636,160.5 C637.242641,160.5 638.367641,161.00368 639.181981,161.818019 C639.99632,162.632359 640.5,163.757359 640.5,165 L640.5,165 L640.5,958 C640.5,959.242641 639.99632,960.367641 639.181981,961.181981 C638.367641,961.99632 637.242641,962.5 636,962.5 L636,962.5 L471,962.5 C469.757359,962.5 468.632359,961.99632 467.818019,961.181981 C467.00368,960.367641 466.5,959.242641 466.5,958 L466.5,958 L466.5,165 C466.5,163.757359 467.00368,162.632359 467.818019,161.818019 C468.632359,161.00368 469.757359,160.5 471,160.5 L471,160.5 Z M1394,202.5 C1395.24264,202.5 1396.36764,203.00368 1397.18198,203.818019 C1397.99632,204.632359 1398.5,205.757359 1398.5,207 L1398.5,207 L1398.5,847 C1398.5,848.242641 1397.99632,849.367641 1397.18198,850.181981 C1396.36764,850.99632 1395.24264,851.5 1394,851.5 L1394,851.5 L1171,851.5 C1169.75736,851.5 1168.63236,850.99632 1167.81802,850.181981 C1167.00368,849.367641 1166.5,848.242641 1166.5,847 L1166.5,847 L1166.5,207 C1166.5,205.757359 1167.00368,204.632359 1167.81802,203.818019 C1168.63236,203.00368 1169.75736,202.5 1171,202.5 L1171,202.5 Z M403,0.5 C404.242641,0.5 405.367641,1.00367966 406.181981,1.81801948 C406.99632,2.63235931 407.5,3.75735931 407.5,5 L407.5,5 L407.5,831 C407.5,832.242641 406.99632,833.367641 406.181981,834.181981 C405.367641,834.99632 404.242641,835.5 403,835.5 L403,835.5 L5,835.5 C3.75735931,835.5 2.63235931,834.99632 1.81801948,834.181981 C1.00367966,833.367641 0.5,832.242641 0.5,831 L0.5,831 L0.5,5 C0.5,3.75735931 1.00367966,2.63235931 1.81801948,1.81801948 C2.63235931,1.00367966 3.75735931,0.5 5,0.5 L5,0.5 Z M1103,72.5 C1104.24264,72.5 1105.36764,73.0036797 1106.18198,73.8180195 C1106.99632,74.6323593 1107.5,75.7573593 1107.5,77 L1107.5,77 L1107.5,746 C1107.5,747.242641 1106.99632,748.367641 1106.18198,749.181981 C1105.36764,749.99632 1104.24264,750.5 1103,750.5 L1103,750.5 L705,750.5 C703.757359,750.5 702.632359,749.99632 701.818019,749.181981 C701.00368,748.367641 700.5,747.242641 700.5,746 L700.5,746 L700.5,77 C700.5,75.7573593 701.00368,74.6323593 701.818019,73.8180195 C702.632359,73.0036797 703.757359,72.5 705,72.5 L705,72.5 Z"></path>
                </g>
            </g>
        </g>
    </g>
</svg>